<svg xmlns="http://www.w3.org/2000/svg" viewBox="0 0 512 512" role="img" aria-labelledby="title desc">
  <title id="title">Islington City FC crest</title>
  <desc id="desc">A navy and red shield with three rings, waves, an open book and a football.</desc>
  <defs>
    <filter id="shadow" x="-20%" y="-20%" width="140%" height="140%">
      <feDropShadow dx="0" dy="7" stdDeviation="6" flood-color="#001f46" flood-opacity=".18"/>
    </filter>
  </defs>
  <path fill="#fff" stroke="#002f65" stroke-width="14" filter="url(#shadow)" d="M78 62h356v244c0 84-52 139-178 190C130 445 78 390 78 306V62Z"/>
  <path fill="none" stroke="#002f65" stroke-width="12" d="M78 153h356"/>
  <g fill="none" stroke="#db001b" stroke-width="18">
    <circle cx="159" cy="108" r="28"/><circle cx="256" cy="108" r="28"/><circle cx="353" cy="108" r="28"/>
  </g>
  <path fill="#003a78" d="M78 209c44 0 57-29 100-14 38 14 61 24 100 3 42-23 62 12 101 4 27-5 38-18 55-13v54c-39-9-51 31-101 16-43-13-57-28-99-4-38 21-64-17-105-3-22 8-34 18-51 19v-62Z"/>
  <path fill="#003a78" d="M91 307c42 0 52-24 86-16 49 12 62 30 105 9 44-21 71 25 119-3 11-7 21-10 31-10-9 38-33 72-72 101-27-2-44-23-79-9-41 17-65-12-103-11-27 0-47 11-67 18-11-22-18-48-20-79Z"/>
  <path fill="#fff" d="M113 245c31-9 44-25 82-8 45 20 63 8 88-6 30-17 50 13 92 12 25-1 38-14 55-20v38c-24 0-42 26-81 18-43-9-60-32-99-9-37 22-70-8-105-3-15 2-26 9-37 16l5-38Z"/>
  <path fill="#fff" d="M118 332c23-10 45-23 82-7 33 15 65 26 104 2 36-22 50 20 103 9-13 18-29 34-50 49-31-1-47-21-80-7-39 17-65-13-101-9-23 2-39 12-53 17-9-16-13-34-5-54Z"/>
  <g stroke-linejoin="round">
    <path fill="#fff" stroke="#db001b" stroke-width="26" d="M158 201c39-11 70-4 98 31 27-35 59-42 98-31v79c-39-11-71-4-98 31-28-35-59-42-98-31v-79Z"/>
    <path fill="#fff" stroke="#003a78" stroke-width="18" d="M171 188c37-12 63-4 85 27 22-31 49-39 85-27v79c-36-12-63-4-85 27-22-31-48-39-85-27v-79Z"/>
    <path stroke="#003a78" stroke-width="9" d="M256 215v79"/>
  </g>
  <g transform="translate(256 385)">
    <circle r="38" fill="#fff" stroke="#003a78" stroke-width="11"/>
    <path fill="none" stroke="#003a78" stroke-width="8" d="M-31-2c24 10 47 6 65-12M-20-27c13 17 19 38 17 63M20-27C5-16-6 1-12 29M-35 13c18 6 43 6 69-2"/>
  </g>
</svg>
